<?xml version="1.0" encoding="UTF-8" standalone="no"?>
<svg
   xmlns:dc="http://purl.org/dc/elements/1.1/"
   xmlns:cc="http://creativecommons.org/ns#"
   xmlns:rdf="http://www.w3.org/1999/02/22-rdf-syntax-ns#"
   xmlns:svg="http://www.w3.org/2000/svg"
   xmlns="http://www.w3.org/2000/svg"
   xml:space="preserve"
   enable-background="new 0 0 240 500"
   viewBox="0 0 189.2 41.900002"
   height="41.900002"
   width="189.2"
   y="0px"
   x="0px"
   id="Layer_1"
   version="1.1"><g
     transform="translate(0,-6)"
     id="g120"><path
       id="path122"
       d="m 41.8,45 c -2.3,0 -4.1,-0.5 -5.6,-2 l 1.3,-1.3 c 1.1,1.1 2.6,1.6 4.3,1.6 2.3,0 3.7,-0.8 3.7,-2.4 0,-1.2 -0.7,-1.9 -2.3,-2 l -2.3,-0.2 c -2.7,-0.2 -4.1,-1.4 -4.1,-3.7 0,-2.5 2.1,-4 5,-4 2,0 3.7,0.5 4.9,1.5 l -1.3,1.3 c -1,-0.8 -2.2,-1.1 -3.7,-1.1 -2,0 -3.1,0.9 -3.1,2.3 0,1.2 0.7,1.9 2.4,2 l 2.2,0.2 c 2.4,0.2 4,1.1 4,3.7 0.2,2.6 -2.1,4.1 -5.4,4.1 z" /><path
       id="path124"
       d="M 53.5,44.8 C 51.2,44.8 50,43.2 50,41.1 l 0,-8.4 -1.7,0 0,-1.5 1.7,0 0,-4.3 2,0 0,4.3 2.9,0 0,1.5 -2.9,0 0,8.4 c 0,1.3 0.6,2 1.9,2 l 1.1,0 0,1.7 c 0,0 -1.5,0 -1.5,0 z" /><path
       id="path126"
       d="m 65.3,44.8 0,-1.3 c -1.1,1.1 -2.1,1.5 -4,1.5 -1.9,0 -3,-0.4 -3.9,-1.3 -0.7,-0.7 -1,-1.7 -1,-2.8 0,-2.4 1.7,-4 4.7,-4 l 4.1,0 0,-1.3 c 0,-2 -1,-3 -3.5,-3 -1.8,0 -2.6,0.4 -3.5,1.6 L 57,33 c 1.2,-1.6 2.6,-2 4.8,-2 3.7,0 5.5,1.6 5.5,4.6 l 0,9.3 -2,-0.1 0,0 z m 0,-6.3 -3.8,0 c -2.1,0 -3.1,0.8 -3.1,2.4 0,1.6 1,2.3 3.1,2.3 1.2,0 2.2,-0.1 3.1,-0.9 0.5,-0.4 0.7,-1.2 0.7,-2.4 l 0,-1.4 z" /><path
       id="path128"
       d="M 75.1,45 C 71.6,45 69,42.7 69,38 c 0,-4.7 2.6,-7 6.1,-7 1.9,0 3.1,0.5 4.5,2 l -1.4,1.3 c -1,-1.1 -1.8,-1.5 -3.1,-1.5 -1.3,0 -2.5,0.5 -3.2,1.6 -0.6,0.9 -0.9,2 -0.9,3.7 0,1.7 0.3,2.8 0.9,3.7 0.7,1 1.8,1.6 3.2,1.6 1.3,0 2.1,-0.4 3.1,-1.6 l 1.4,1.3 C 78.2,44.5 77,45 75.1,45 Z" /><path
       id="path130"
       d="m 90.6,44.8 -4.3,-7 -2.7,3.1 0,4 -2,0 0,-19.9 2,0 0,13.3 6.2,-7.1 2.5,0 -4.7,5.2 5.5,8.5 -2.5,-0.1 0,0 z" /><path
       id="path132"
       d="m 103.8,43.3 c -0.8,0.9 -2.2,1.7 -4.3,1.7 -2,0 -3.4,-0.8 -4.3,-1.7 -1.2,-1.3 -1.6,-2.9 -1.6,-5.4 0,-2.5 0.3,-4 1.6,-5.3 0.8,-0.9 2.2,-1.7 4.3,-1.7 2,0 3.4,0.8 4.3,1.7 1.2,1.3 1.6,2.9 1.6,5.3 0,2.6 -0.4,4.1 -1.6,5.4 z m -2.7,-8.7 c -0.4,-0.4 -0.9,-0.6 -1.6,-0.6 -0.7,0 -1.2,0.2 -1.6,0.6 -0.7,0.7 -0.8,1.9 -0.8,3.3 0,1.4 0.1,2.6 0.8,3.4 0.4,0.4 0.9,0.6 1.6,0.6 0.7,0 1.2,-0.2 1.6,-0.6 0.7,-0.7 0.8,-1.9 0.8,-3.4 0,-1.4 0,-2.6 -0.8,-3.3 z" /><path
       id="path134"
       d="m 113.1,44.8 -2.7,0 -5.1,-13.7 3.6,0 2.8,8.5 2.8,-8.5 3.6,0 -5,13.7 z" /><path
       id="path136"
       d="m 121.4,39 c 0,1.8 1.1,3.1 3,3.1 1.5,0 2.2,-0.4 3.1,-1.3 l 2.1,2 c -1.4,1.4 -2.7,2.2 -5.2,2.2 -3.2,0 -6.4,-1.5 -6.4,-7.1 0,-4.5 2.4,-7 6,-7 3.8,0 6,2.8 6,6.6 l 0,1.5 -8.6,0 z m 4.9,-3.8 c -0.4,-0.8 -1.1,-1.4 -2.3,-1.4 -1.2,0 -1.9,0.6 -2.3,1.4 -0.2,0.5 -0.3,0.9 -0.3,1.5 l 5.2,0 c 0,-0.6 -0.1,-1 -0.3,-1.5 z" /><path
       id="path138"
       d="m 139.2,34.8 c -0.5,-0.5 -1,-0.8 -1.8,-0.8 -1.1,0 -2.2,0.8 -2.2,2.5 l 0,8.3 -3.4,0 0,-13.7 3.4,0 0,1.3 c 0.7,-0.8 2,-1.5 3.5,-1.5 1.3,0 2.3,0.3 3.2,1.3 l -2.7,2.6 z" /><path
       id="path140"
       d="m 147.5,33.7 0,11.1 -3.4,0 0,-11.1 -1.4,0 0,-2.6 1.4,0 0,-1.7 c 0,-2 1.2,-3.9 4,-3.9 l 2,0 0,2.9 -1.3,0 c -0.8,0 -1.2,0.4 -1.2,1.2 l 0,1.5 2.5,0 0,2.6 -2.6,0 z m 8.1,11.1 c -2.8,0 -4,-2 -4,-3.9 l 0,-15.5 3.4,0 0,15.2 c 0,0.8 0.3,1.2 1.2,1.2 l 1.3,0 0,2.9 -1.9,0.1 z" /><path
       id="path142"
       d="m 168.2,43.3 c -0.8,0.9 -2.2,1.7 -4.3,1.7 -2,0 -3.4,-0.8 -4.3,-1.7 -1.2,-1.3 -1.6,-2.9 -1.6,-5.4 0,-2.5 0.3,-4 1.6,-5.3 0.8,-0.9 2.2,-1.7 4.3,-1.7 2,0 3.4,0.8 4.3,1.7 1.2,1.3 1.6,2.9 1.6,5.3 -0.1,2.6 -0.4,4.1 -1.6,5.4 z m -2.7,-8.7 c -0.4,-0.4 -0.9,-0.6 -1.6,-0.6 -0.7,0 -1.2,0.2 -1.6,0.6 -0.7,0.7 -0.8,1.9 -0.8,3.3 0,1.4 0.1,2.6 0.8,3.4 0.4,0.4 0.9,0.6 1.6,0.6 0.7,0 1.2,-0.2 1.6,-0.6 0.7,-0.7 0.8,-1.9 0.8,-3.4 0,-1.4 -0.1,-2.6 -0.8,-3.3 z" /><path
       id="path144"
       d="m 185.1,44.8 -2.8,0 -2.9,-8.6 -2.9,8.6 -2.8,0 -4.2,-13.7 3.6,0 2.2,8.5 2.8,-8.5 2.5,0 2.8,8.5 2.2,-8.5 3.6,0 -4.1,13.7 z" /></g><rect
     style="fill:#818185"
     id="rect146"
     height="3"
     width="17"
     y="32.900002"
     x="6" /><polygon
     transform="translate(0,-6)"
     style="fill:#818185"
     id="polygon148"
     points="3,30.9 0,30.9 0,47.9 0,47.9 29,47.9 29,30.9 26,30.9 26,44.9 3,44.9 " /><rect
     style="fill:#a68a6e"
     id="rect150"
     height="3.0001037"
     width="16.800579"
     transform="rotate(5.274568)"
     y="26.037098"
     x="8.7995596" /><polygon
     transform="translate(0,-6)"
     style="fill:#bf9452"
     id="polygon152"
     points="23.9,30 23.2,32.9 6.9,28.9 7.6,25.9 " /><polygon
     transform="translate(0,-6)"
     style="fill:#d28b29"
     id="polygon154"
     points="25.6,25.7 24.3,28.2 9.6,20.7 11,18.2 " /><polygon
     transform="translate(0,-6)"
     style="fill:#f68a1f"
     id="polygon156"
     points="28.7,22.4 26.7,24.7 13.7,13.9 15.7,11.7 " /><polygon
     transform="translate(0,-6)"
     style="fill:#f47920"
     id="polygon158"
     points="32.1,19.4 29.6,21 20.1,7.6 22.5,6 " /></svg>